<svg width="22" height="22" viewBox="0 0 22 22" fill="none" xmlns="http://www.w3.org/2000/svg">
<path d="M11.9173 15.6224H2.75065C2.50754 15.6224 2.27438 15.7442 2.10247 15.9609C1.93056 16.1777 1.83398 16.4717 1.83398 16.7782C1.83398 17.0848 1.93056 17.3787 2.10247 17.5955C2.27438 17.8122 2.50754 17.934 2.75065 17.934H11.9173C12.1604 17.934 12.3936 17.8122 12.5655 17.5955C12.7374 17.3787 12.834 17.0848 12.834 16.7782C12.834 16.4717 12.7374 16.1777 12.5655 15.9609C12.3936 15.7442 12.1604 15.6224 11.9173 15.6224ZM2.75065 6.37605H19.2507C19.4938 6.37605 19.7269 6.25428 19.8988 6.03752C20.0707 5.82077 20.1673 5.52679 20.1673 5.22025C20.1673 4.91371 20.0707 4.61973 19.8988 4.40298C19.7269 4.18622 19.4938 4.06445 19.2507 4.06445H2.75065C2.50754 4.06445 2.27438 4.18622 2.10247 4.40298C1.93056 4.61973 1.83398 4.91371 1.83398 5.22025C1.83398 5.52679 1.93056 5.82077 2.10247 6.03752C2.27438 6.25428 2.50754 6.37605 2.75065 6.37605ZM19.2507 9.84344H2.75065C2.50754 9.84344 2.27438 9.96521 2.10247 10.182C1.93056 10.3987 1.83398 10.6927 1.83398 10.9992C1.83398 11.3058 1.93056 11.5998 2.10247 11.8165C2.27438 12.0333 2.50754 12.155 2.75065 12.155H19.2507C19.4938 12.155 19.7269 12.0333 19.8988 11.8165C20.0707 11.5998 20.1673 11.3058 20.1673 10.9992C20.1673 10.6927 20.0707 10.3987 19.8988 10.182C19.7269 9.96521 19.4938 9.84344 19.2507 9.84344Z" fill="#FF5252"/>
</svg>
