<svg width="21" height="22" viewBox="0 0 21 22" fill="none" xmlns="http://www.w3.org/2000/svg">
<path fill-rule="evenodd" clip-rule="evenodd" d="M15.7654 5.03125C15.5374 5.03125 15.3188 5.12181 15.1576 5.28302L5.62193 14.8187C5.28551 15.1551 5.04685 15.5766 4.93146 16.0382L4.70259 16.9537L5.61808 16.7248C6.07964 16.6094 6.50116 16.3708 6.83758 16.0343L16.3733 6.49866C16.4531 6.41884 16.5164 6.32408 16.5596 6.21979C16.6028 6.1155 16.625 6.00373 16.625 5.89084C16.625 5.77796 16.6028 5.66618 16.5596 5.56189C16.5164 5.4576 16.4531 5.36284 16.3733 5.28302C16.2934 5.2032 16.1987 5.13988 16.0944 5.09668C15.9901 5.05348 15.8783 5.03125 15.7654 5.03125ZM13.9202 4.04558C14.4096 3.55619 15.0733 3.28125 15.7654 3.28125C16.1081 3.28125 16.4475 3.34875 16.7641 3.47989C17.0807 3.61104 17.3684 3.80326 17.6107 4.04558C17.853 4.2879 18.0452 4.57558 18.1764 4.89219C18.3075 5.2088 18.375 5.54815 18.375 5.89084C18.375 6.23354 18.3075 6.57288 18.1764 6.88949C18.0452 7.2061 17.853 7.49378 17.6107 7.7361L8.07501 17.2718C7.51432 17.8325 6.81178 18.2302 6.04251 18.4226L3.71224 19.0051C3.41406 19.0797 3.09863 18.9923 2.8813 18.775C2.66397 18.5576 2.5766 18.2422 2.65114 17.944L3.23371 15.6138C3.42603 14.8445 3.8238 14.142 4.38449 13.5813L13.9202 4.04558Z" fill="#9E9E9E"/>
<path fill-rule="evenodd" clip-rule="evenodd" d="M14.2559 10.0245L11.6309 7.39955L12.8683 6.16211L15.4933 8.78711L14.2559 10.0245Z" fill="#9E9E9E"/>
<path fill-rule="evenodd" clip-rule="evenodd" d="M10.5 18.1562C10.5 17.673 10.8918 17.2812 11.375 17.2812L17.5 17.2813C17.9832 17.2813 18.375 17.673 18.375 18.1562C18.375 18.6395 17.9832 19.0313 17.5 19.0313L11.375 19.0312C10.8918 19.0312 10.5 18.6395 10.5 18.1562Z" fill="#9E9E9E"/>
</svg>
