<svg width="21" height="21" viewBox="0 0 21 21" fill="none" xmlns="http://www.w3.org/2000/svg">
<path d="M18.996 17.7545L15.7497 14.5345C17.0098 12.9633 17.62 10.9691 17.4549 8.96185C17.2898 6.9546 16.3619 5.08689 14.8621 3.74277C13.3622 2.39865 11.4043 1.68028 9.39104 1.73537C7.37777 1.79046 5.46211 2.61483 4.03798 4.03896C2.61385 5.46309 1.78949 7.37874 1.73439 9.39202C1.6793 11.4053 2.39768 13.3632 3.7418 14.863C5.08592 16.3629 6.95362 17.2908 8.96087 17.4559C10.9681 17.621 12.9623 17.0108 14.5335 15.7507L17.7535 18.9707C17.8348 19.0527 17.9316 19.1178 18.0382 19.1622C18.1449 19.2067 18.2592 19.2295 18.3747 19.2295C18.4902 19.2295 18.6046 19.2067 18.7112 19.1622C18.8179 19.1178 18.9146 19.0527 18.996 18.9707C19.1537 18.8076 19.2418 18.5895 19.2418 18.3626C19.2418 18.1357 19.1537 17.9176 18.996 17.7545V17.7545ZM9.62473 15.7507C8.41332 15.7507 7.22912 15.3915 6.22187 14.7185C5.21461 14.0454 4.42956 13.0888 3.96597 11.9696C3.50238 10.8504 3.38109 9.61892 3.61742 8.43078C3.85376 7.24265 4.43711 6.15128 5.2937 5.29468C6.1503 4.43808 7.24167 3.85473 8.42981 3.6184C9.61794 3.38207 10.8495 3.50336 11.9687 3.96695C13.0879 4.43053 14.0445 5.21559 14.7175 6.22284C15.3905 7.23009 15.7497 8.4143 15.7497 9.62571C15.7497 11.2502 15.1044 12.8081 13.9558 13.9567C12.8071 15.1054 11.2492 15.7507 9.62473 15.7507V15.7507Z" fill="#9E9E9E"/>
</svg>
