<svg width="23" height="25" viewBox="0 0 23 25" fill="none" xmlns="http://www.w3.org/2000/svg">
<path d="M20.8053 20.9682L17.2498 17.2984C18.6299 15.5078 19.2983 13.235 19.1175 10.9473C18.9366 8.65968 17.9204 6.53107 16.2776 4.99919C14.6349 3.46731 12.4906 2.64858 10.2856 2.71137C8.08055 2.77416 5.98246 3.71368 4.42269 5.33675C2.86293 6.95982 1.96005 9.14307 1.89971 11.4376C1.83938 13.7321 2.62617 15.9635 4.0983 17.6729C5.57043 19.3823 7.61601 20.4398 9.81443 20.6279C12.0128 20.8161 14.197 20.1206 15.9178 18.6845L19.4444 22.3543C19.5335 22.4478 19.6395 22.522 19.7563 22.5726C19.8731 22.6232 19.9983 22.6493 20.1248 22.6493C20.2514 22.6493 20.3766 22.6232 20.4934 22.5726C20.6102 22.522 20.7162 22.4478 20.8053 22.3543C20.978 22.1684 21.0745 21.9199 21.0745 21.6613C21.0745 21.4026 20.978 21.1541 20.8053 20.9682ZM10.5415 18.6845C9.21473 18.6845 7.91774 18.2751 6.81456 17.5081C5.71138 16.741 4.85156 15.6508 4.34382 14.3753C3.83608 13.0997 3.70324 11.6962 3.96208 10.3421C4.22092 8.98797 4.85983 7.74414 5.79801 6.76788C6.73618 5.79163 7.93149 5.12679 9.23278 4.85744C10.5341 4.58809 11.8829 4.72633 13.1087 5.25468C14.3345 5.78302 15.3822 6.67775 16.1193 7.8257C16.8564 8.97366 17.2498 10.3233 17.2498 11.7039C17.2498 13.5553 16.5431 15.3308 15.285 16.64C14.027 17.9491 12.3207 18.6845 10.5415 18.6845Z" fill="#0260E8"/>
</svg>
