<svg width="15" height="11" viewBox="0 0 15 11" fill="none" xmlns="http://www.w3.org/2000/svg">
<path d="M13.0114 0.274319C12.9179 0.253284 12.8207 0.242188 12.7209 0.242188H1.32509C1.12518 0.242188 0.935607 0.286711 0.765643 0.366439L6.28054 5.91305C6.59103 6.22532 7.09443 6.22532 7.40492 5.91305L13.0114 0.274319Z" fill="#0260E8"/>
<path d="M4.37281 5.12519L0.178373 0.906636C0.0649478 1.10309 0 1.33137 0 1.5749V8.77154C0 8.98981 0.0521714 9.19582 0.144656 9.37766L4.37281 5.12519Z" fill="#0260E8"/>
<path d="M13.0875 10.0526L8.75046 5.69061L7.96711 6.47847C7.34613 7.10302 6.33933 7.10302 5.71835 6.47847L4.935 5.69061L0.701955 9.948C0.887699 10.0477 1.09983 10.1043 1.32509 10.1043H12.7209C12.8481 10.1043 12.9711 10.0862 13.0875 10.0526Z" fill="#0260E8"/>
<path d="M13.7602 9.59834C13.9391 9.37113 14.046 9.08388 14.046 8.77154V1.5749C14.046 1.23804 13.9217 0.930377 13.7168 0.695738L9.31265 5.12519L13.7602 9.59834Z" fill="#0260E8"/>
</svg>
