<svg width="22" height="22" viewBox="0 0 22 22" fill="none" xmlns="http://www.w3.org/2000/svg">
<path fill-rule="evenodd" clip-rule="evenodd" d="M2.75065 14.666L8.22026 14.666C8.72653 14.666 9.13693 15.0764 9.13693 15.5827C9.13693 16.0889 8.72653 16.4993 8.22026 16.4993L2.75065 16.4993C2.24439 16.4993 1.83398 16.0889 1.83398 15.5827C1.83398 15.0764 2.24439 14.666 2.75065 14.666Z" fill="#0260E8"/>
<path fill-rule="evenodd" clip-rule="evenodd" d="M12.834 6.41667C12.834 5.91041 13.2444 5.5 13.7507 5.5H19.2507C19.7569 5.5 20.1673 5.91041 20.1673 6.41667C20.1673 6.92293 19.7569 7.33333 19.2507 7.33333H13.7507C13.2444 7.33333 12.834 6.92293 12.834 6.41667Z" fill="#0260E8"/>
<path fill-rule="evenodd" clip-rule="evenodd" d="M1.83398 6.41667C1.83398 5.91041 2.24439 5.5 2.75065 5.5H2.75982C3.26608 5.5 3.67648 5.91041 3.67648 6.41667C3.67648 6.92293 3.26608 7.33333 2.75982 7.33333H2.75065C2.24439 7.33333 1.83398 6.92293 1.83398 6.41667Z" fill="#0260E8"/>
<path fill-rule="evenodd" clip-rule="evenodd" d="M18.334 15.5827C18.334 15.0764 18.7444 14.666 19.2507 14.666H19.2598C19.7661 14.666 20.1765 15.0764 20.1765 15.5827C20.1765 16.0889 19.7661 16.4993 19.2598 16.4993H19.2507C18.7444 16.4993 18.334 16.0889 18.334 15.5827Z" fill="#0260E8"/>
<path fill-rule="evenodd" clip-rule="evenodd" d="M13.6905 13.7493C12.6912 13.7493 11.8724 14.5654 11.8724 15.5827C11.8724 16.6 12.6912 17.416 13.6905 17.416C14.6899 17.416 15.5087 16.6 15.5087 15.5827C15.5087 14.5654 14.6899 13.7493 13.6905 13.7493ZM10.0391 15.5827C10.0391 13.5624 11.6691 11.916 13.6905 11.916C15.712 11.916 17.342 13.5624 17.342 15.5827C17.342 17.6029 15.712 19.2493 13.6905 19.2493C11.6691 19.2493 10.0391 17.6029 10.0391 15.5827Z" fill="#0260E8"/>
<path fill-rule="evenodd" clip-rule="evenodd" d="M8.21983 4.58333C7.22048 4.58333 6.40169 5.39935 6.40169 6.41667C6.40169 7.43398 7.22048 8.25 8.21983 8.25C9.21918 8.25 10.038 7.43398 10.038 6.41667C10.038 5.39935 9.21918 4.58333 8.21983 4.58333ZM4.56836 6.41667C4.56836 4.39642 6.1984 2.75 8.21983 2.75C10.2413 2.75 11.8713 4.39642 11.8713 6.41667C11.8713 8.43692 10.2413 10.0833 8.21983 10.0833C6.1984 10.0833 4.56836 8.43692 4.56836 6.41667Z" fill="#0260E8"/>
</svg>
