<svg width="38" height="38" viewBox="0 0 38 38" fill="none" xmlns="http://www.w3.org/2000/svg">
<rect x="4.75" y="4.75" width="28.5" height="28.5" rx="14.25" stroke="#FF5252" stroke-width="1.5"/>
<path d="M18.5718 11.7949C18.7661 11.472 19.2342 11.472 19.4286 11.7949L21.4968 15.2315C21.5666 15.3475 21.6805 15.4303 21.8124 15.4608L25.72 16.3658C26.0871 16.4509 26.2318 16.8961 25.9847 17.1807L23.3554 20.2097C23.2666 20.3119 23.2231 20.4458 23.2348 20.5807L23.5816 24.5767C23.6142 24.9521 23.2355 25.2273 22.8885 25.0803L19.1952 23.5156C19.0705 23.4628 18.9298 23.4628 18.8051 23.5156L15.1119 25.0803C14.7649 25.2273 14.3861 24.9521 14.4187 24.5767L14.7655 20.5807C14.7772 20.4458 14.7337 20.3119 14.645 20.2097L12.0156 17.1807C11.7685 16.8961 11.9132 16.4509 12.2804 16.3658L16.188 15.4608C16.3199 15.4303 16.4337 15.3475 16.5035 15.2315L18.5718 11.7949Z" stroke="#FF5252" stroke-width="1.5"/>
</svg>
