<svg width="30" height="30" viewBox="0 0 30 30" fill="none" xmlns="http://www.w3.org/2000/svg">
<path d="M6.25 14.9585C5.91848 14.9585 5.60054 15.0899 5.36612 15.3236C5.1317 15.5574 5 15.8745 5 16.2051V26.1774C5 26.508 5.1317 26.825 5.36612 27.0588C5.60054 27.2926 5.91848 27.4239 6.25 27.4239C6.58152 27.4239 6.89946 27.2926 7.13388 27.0588C7.3683 26.825 7.5 26.508 7.5 26.1774V16.2051C7.5 15.8745 7.3683 15.5574 7.13388 15.3236C6.89946 15.0899 6.58152 14.9585 6.25 14.9585ZM12.5 2.49316C12.1685 2.49316 11.8505 2.6245 11.6161 2.85827C11.3817 3.09204 11.25 3.4091 11.25 3.7397V26.1774C11.25 26.508 11.3817 26.825 11.6161 27.0588C11.8505 27.2926 12.1685 27.4239 12.5 27.4239C12.8315 27.4239 13.1495 27.2926 13.3839 27.0588C13.6183 26.825 13.75 26.508 13.75 26.1774V3.7397C13.75 3.4091 13.6183 3.09204 13.3839 2.85827C13.1495 2.6245 12.8315 2.49316 12.5 2.49316ZM25 19.9447C24.6685 19.9447 24.3505 20.076 24.1161 20.3098C23.8817 20.5436 23.75 20.8606 23.75 21.1912V26.1774C23.75 26.508 23.8817 26.825 24.1161 27.0588C24.3505 27.2926 24.6685 27.4239 25 27.4239C25.3315 27.4239 25.6495 27.2926 25.8839 27.0588C26.1183 26.825 26.25 26.508 26.25 26.1774V21.1912C26.25 20.8606 26.1183 20.5436 25.8839 20.3098C25.6495 20.076 25.3315 19.9447 25 19.9447ZM18.75 9.97239C18.4185 9.97239 18.1005 10.1037 17.8661 10.3375C17.6317 10.5713 17.5 10.8883 17.5 11.2189V26.1774C17.5 26.508 17.6317 26.825 17.8661 27.0588C18.1005 27.2926 18.4185 27.4239 18.75 27.4239C19.0815 27.4239 19.3995 27.2926 19.6339 27.0588C19.8683 26.825 20 26.508 20 26.1774V11.2189C20 10.8883 19.8683 10.5713 19.6339 10.3375C19.3995 10.1037 19.0815 9.97239 18.75 9.97239Z" fill="white"/>
</svg>
