<svg width="30" height="30" viewBox="0 0 30 30" fill="none" xmlns="http://www.w3.org/2000/svg">
<path d="M6.25 14.9576C5.91848 14.9576 5.60054 15.0889 5.36612 15.3227C5.1317 15.5564 5 15.8735 5 16.2041V26.1764C5 26.507 5.1317 26.8241 5.36612 27.0578C5.60054 27.2916 5.91848 27.4229 6.25 27.4229C6.58152 27.4229 6.89946 27.2916 7.13388 27.0578C7.3683 26.8241 7.5 26.507 7.5 26.1764V16.2041C7.5 15.8735 7.3683 15.5564 7.13388 15.3227C6.89946 15.0889 6.58152 14.9576 6.25 14.9576ZM12.5 2.49219C12.1685 2.49219 11.8505 2.62352 11.6161 2.85729C11.3817 3.09106 11.25 3.40812 11.25 3.73872V26.1764C11.25 26.507 11.3817 26.8241 11.6161 27.0578C11.8505 27.2916 12.1685 27.4229 12.5 27.4229C12.8315 27.4229 13.1495 27.2916 13.3839 27.0578C13.6183 26.8241 13.75 26.507 13.75 26.1764V3.73872C13.75 3.40812 13.6183 3.09106 13.3839 2.85729C13.1495 2.62352 12.8315 2.49219 12.5 2.49219ZM25 19.9437C24.6685 19.9437 24.3505 20.075 24.1161 20.3088C23.8817 20.5426 23.75 20.8596 23.75 21.1902V26.1764C23.75 26.507 23.8817 26.8241 24.1161 27.0578C24.3505 27.2916 24.6685 27.4229 25 27.4229C25.3315 27.4229 25.6495 27.2916 25.8839 27.0578C26.1183 26.8241 26.25 26.507 26.25 26.1764V21.1902C26.25 20.8596 26.1183 20.5426 25.8839 20.3088C25.6495 20.075 25.3315 19.9437 25 19.9437ZM18.75 9.97141C18.4185 9.97141 18.1005 10.1027 17.8661 10.3365C17.6317 10.5703 17.5 10.8873 17.5 11.2179V26.1764C17.5 26.507 17.6317 26.8241 17.8661 27.0578C18.1005 27.2916 18.4185 27.4229 18.75 27.4229C19.0815 27.4229 19.3995 27.2916 19.6339 27.0578C19.8683 26.8241 20 26.507 20 26.1764V11.2179C20 10.8873 19.8683 10.5703 19.6339 10.3365C19.3995 10.1027 19.0815 9.97141 18.75 9.97141Z" fill="#9E9E9E"/>
</svg>
