<svg width="15" height="12" viewBox="0 0 15 12" fill="none" xmlns="http://www.w3.org/2000/svg">
<path d="M0.970539 5.03677C4.7603 3.38563 7.28741 2.2971 8.55185 1.77118C12.1621 0.269554 12.9123 0.0087052 13.4012 9.18372e-05C13.5088 -0.00180257 13.7492 0.0248494 13.905 0.151234C14.0365 0.257951 14.0727 0.402111 14.09 0.503291C14.1073 0.60447 14.1289 0.83496 14.1117 1.01506C13.9161 3.07066 13.0696 8.05908 12.6389 10.3614C12.4567 11.3356 12.0978 11.6622 11.7505 11.6942C10.9955 11.7637 10.4223 11.1953 9.69107 10.716C8.5469 9.96597 7.90052 9.49908 6.7899 8.7672C5.5064 7.92139 6.33844 7.45652 7.06991 6.69678C7.26133 6.49796 10.5876 3.47247 10.652 3.19801C10.66 3.16368 10.6675 3.03573 10.5915 2.96817C10.5155 2.90061 10.4033 2.92371 10.3223 2.94209C10.2076 2.96813 8.37974 4.17626 4.83885 6.56646C4.32003 6.92272 3.85009 7.09631 3.42905 7.08721C2.96488 7.07718 2.07201 6.82476 1.40825 6.609C0.594128 6.34436 -0.0529234 6.20444 0.00342022 5.755C0.0327675 5.52091 0.35514 5.2815 0.970539 5.03677Z" fill="#0260E8"/>
</svg>
